<?xml version="1.0" standalone="no"?>
<!DOCTYPE svg PUBLIC "-//W3C//DTD SVG 20010904//EN"
 "http://www.w3.org/TR/2001/REC-SVG-20010904/DTD/svg10.dtd">
<svg version="1.0" xmlns="http://www.w3.org/2000/svg"
 width="176.000000pt" height="176.000000pt" viewBox="0 0 176.000000 176.000000"
 preserveAspectRatio="xMidYMid meet">
<metadata>
Created by potrace 1.16, written by Peter Selinger 2001-2019
</metadata>
<g transform="translate(0.000000,176.000000) scale(0.100000,-0.100000)"
fill="#000000" stroke="none">
<path d="M606 1749 c-2 -8 -10 -35 -16 -62 -14 -54 -26 -66 -35 -37 -8 25 -30
26 -40 3 -3 -10 -9 -48 -12 -85 l-6 -67 -36 52 c-46 65 -64 67 -71 8 l-5 -43
-19 21 c-11 11 -25 21 -33 21 -20 0 -18 -130 4 -175 12 -25 14 -38 6 -46 -12
-12 -47 38 -58 84 -4 15 -13 27 -21 27 -21 0 -17 -67 6 -119 25 -54 25 -78 1
-133 -10 -24 -24 -68 -30 -98 -7 -30 -14 -65 -17 -77 -5 -17 -2 -23 10 -23 11
0 16 -9 16 -27 0 -16 7 -41 15 -57 22 -41 19 -54 -15 -61 -40 -9 -70 -75 -70
-157 0 -63 3 -69 75 -141 27 -27 123 -77 149 -77 26 -1 37 -22 69 -130 38
-132 75 -196 151 -256 90 -74 129 -89 238 -92 80 -3 104 0 142 16 110 49 246
226 300 390 12 36 23 52 35 52 27 0 106 57 156 112 97 108 91 248 -13 302 -21
11 -32 24 -32 39 -1 12 -7 39 -14 59 -9 26 -10 38 -3 41 7 2 10 28 9 65 l-3
62 31 0 c26 0 30 4 30 27 0 17 -12 39 -32 60 l-31 32 29 -2 c23 -2 29 2 29 17
0 22 -124 123 -162 132 -13 4 -23 9 -23 13 0 10 88 51 110 51 24 0 100 39 100
51 0 12 -102 12 -133 0 -32 -12 -40 -4 -22 23 7 11 16 36 20 54 6 30 5 32 -23
32 -40 0 -88 -21 -145 -65 -27 -20 -51 -35 -53 -32 -3 3 18 24 48 47 39 31 53
50 54 69 1 14 4 33 8 42 4 10 2 18 -6 21 -26 10 -75 -13 -137 -62 -34 -28 -64
-50 -66 -48 -2 2 12 28 30 58 19 30 35 64 37 75 2 17 -2 19 -26 17 -31 -4
-159 -101 -177 -133 -14 -28 -29 -23 -29 9 -1 47 -25 127 -40 127 -9 0 -21
-30 -33 -85 l-20 -84 -12 35 c-7 19 -16 58 -20 87 -5 40 -11 52 -24 52 -24 0
-41 -60 -41 -144 0 -49 -3 -67 -12 -64 -15 5 -52 99 -61 153 -7 43 -24 67 -31
44z m159 -127 c8 -48 41 -105 58 -99 7 2 15 32 19 66 11 103 20 105 33 9 4
-32 11 -48 21 -48 8 0 14 9 14 21 0 12 4 17 11 13 6 -3 31 13 55 37 45 44 56
46 29 5 -18 -27 -37 -118 -26 -129 4 -4 49 20 101 53 101 65 139 79 75 27 -56
-45 -96 -88 -106 -114 -10 -27 -22 -29 -39 -8 -12 15 -40 21 -40 9 0 -3 16
-25 35 -49 20 -23 33 -49 30 -57 -3 -8 1 -28 10 -44 8 -16 15 -51 14 -79 l-1
-50 -12 50 c-24 97 -71 154 -145 176 -34 10 -42 9 -78 -14 -21 -14 -47 -37
-56 -51 -23 -34 -40 -34 -27 0 15 38 12 46 -12 38 -22 -6 -21 -5 5 29 30 40
34 57 12 57 -16 0 -57 -59 -84 -124 -10 -22 -32 -56 -49 -74 -17 -18 -34 -42
-37 -53 -4 -10 -11 -19 -17 -19 -18 0 -1 97 23 138 12 20 37 56 56 79 36 46
39 53 20 53 -20 0 -82 -70 -107 -120 -13 -25 -25 -71 -28 -107 -3 -35 -11 -68
-18 -74 -20 -16 -18 103 2 156 26 67 28 85 10 85 -9 0 -16 -4 -16 -10 0 -5 -9
-10 -21 -10 -16 0 -19 4 -14 20 4 14 2 20 -9 20 -16 0 -21 12 -30 75 l-7 40
53 -58 c59 -64 100 -80 73 -27 -16 31 -21 130 -6 130 5 0 14 -21 20 -46 17
-68 35 -52 39 34 3 68 16 93 28 55 14 -46 49 -115 66 -130 29 -26 41 -4 46 86
5 84 16 98 27 33z m389 -207 c3 -8 12 -15 21 -15 19 0 45 -62 38 -89 -3 -14 0
-23 11 -27 17 -6 23 -34 7 -34 -15 0 -20 -40 -10 -69 16 -40 -5 -14 -39 49
-16 30 -36 55 -43 55 -17 0 -32 19 -52 67 l-16 37 32 20 c38 25 43 25 51 6z
m-160 -121 c11 -22 22 -72 25 -116 4 -42 9 -80 13 -83 18 -18 58 50 58 99 0
13 7 27 16 30 30 12 59 -98 40 -153 -8 -22 -6 -23 18 -17 45 11 28 -11 -19
-24 -48 -13 -125 -73 -125 -96 0 -21 9 -18 51 20 42 39 104 60 146 50 15 -4
47 -18 70 -33 36 -22 43 -32 48 -66 10 -71 -3 -267 -24 -355 -23 -97 -76 -238
-99 -260 -13 -13 -14 -13 -8 5 4 11 10 44 13 73 8 74 -10 92 -92 92 -33 0 -65
-4 -71 -9 -5 -5 -101 -11 -214 -13 -173 -4 -211 -8 -240 -23 -63 -33 -71 -58
-44 -138 21 -62 95 -143 142 -158 23 -7 103 -9 210 -7 94 1 172 1 172 -1 0 -9
-39 -34 -95 -62 -108 -53 -215 -31 -344 71 -69 54 -94 103 -153 292 -80 256
-97 329 -85 350 9 13 8 21 -1 30 -22 22 -14 65 21 101 52 55 104 79 169 80 51
0 63 -4 99 -32 22 -18 43 -31 46 -27 10 10 -6 34 -42 62 -31 23 -46 28 -99 28
-50 0 -73 -6 -119 -31 -62 -34 -64 -32 -58 31 0 10 -3 24 -8 30 -6 7 -6 17 -1
26 6 8 10 45 10 82 0 52 -4 69 -16 76 -10 6 -13 12 -6 16 5 3 8 15 5 25 -3 13
7 32 32 58 l36 38 -8 -45 c-15 -83 -6 -161 27 -245 l8 -20 7 20 c4 11 10 29
15 40 l8 20 7 -20 c18 -52 26 -65 41 -65 11 0 14 5 9 18 -15 39 -16 70 -2 102
l14 35 12 -53 c22 -102 47 -119 49 -33 1 76 52 156 52 83 0 -27 15 -52 33 -52
4 0 7 27 5 59 -2 45 2 64 15 78 9 11 17 24 17 29 0 12 57 67 84 82 27 14 105
-42 130 -94z m494 -460 c27 -19 52 -65 52 -97 0 -64 -68 -164 -146 -216 -26
-17 -51 -31 -54 -31 -4 0 1 39 11 88 10 48 19 113 19 145 0 47 5 65 26 93 29
37 57 43 92 18z m-1178 -16 c0 -6 11 -25 23 -42 13 -17 32 -62 42 -101 9 -38
24 -89 33 -113 8 -23 12 -45 9 -48 -21 -21 -164 74 -194 129 -25 44 -11 124
29 175 13 15 58 16 58 0z m864 -394 c9 -3 16 -16 15 -28 0 -11 -3 -15 -6 -8
-6 15 -39 16 -48 2 -4 -6 -2 -17 4 -24 18 -22 2 -26 -103 -26 -86 -1 -357 -15
-436 -22 -21 -3 -25 1 -25 22 0 19 9 29 40 44 35 17 69 20 280 23 136 2 244 8
249 13 12 12 10 12 30 4z m-14 -165 c-26 -70 -53 -96 -112 -108 -64 -14 -298
-14 -335 0 -31 11 -74 49 -105 91 l-19 28 28 11 c30 11 248 25 445 27 l118 2
-20 -51z"/>
<path d="M1215 836 c-71 -23 -185 -92 -185 -112 0 -15 16 -20 91 -29 33 -3 81
-19 114 -36 59 -31 72 -31 61 -4 -6 17 -101 65 -129 65 -10 0 -15 5 -12 11 4
6 21 10 39 9 49 -3 58 -1 54 13 -3 6 -24 14 -49 17 -41 5 -42 6 -22 18 12 6
46 15 75 20 37 5 53 12 53 22 0 20 -40 22 -90 6z"/>
<path d="M498 794 c-16 -15 -7 -22 40 -29 45 -7 46 -8 20 -17 -50 -17 -34 -35
30 -31 l57 3 -45 -20 c-67 -31 -114 -70 -101 -83 8 -8 19 -5 38 9 33 24 125
64 147 64 8 0 27 5 42 10 25 10 26 12 10 29 -34 38 -217 88 -238 65z"/>
</g>
</svg>
